<svg height="512" version="1.1" width="512" xmlns="http://www.w3.org/2000/svg" style="overflow: hidden; position: relative; left: -0.5px;">
<rect x="0" y="0" width="512" height="512" r="0" rx="0" ry="0" fill="#ececec" stroke="#a1a1a1" fill-opacity="1" stroke-opacity="1" stroke-width="0" stroke-miterlimit="10" style="-webkit-tap-highlight-color: rgba(0, 0, 0, 0); fill-opacity: 1; stroke-opacity: 1; stroke-miterlimit: 10;"></rect>
<path fill="#000000" stroke="#a1a1a1" d="M0,-0.007H300V299.99H1.547C1.547,299.99,1.438,299.898,1.3279999999999998,299.99C1.283,300.028,1.0939999999999999,299.99,1.0939999999999999,299.99H0L0,299.99L0,299.99L0,299.99L0,299.99L0,299.99L0,299.99L0,299.99L0,299.99L0,299.99L0,299.99L0,299.99L0,299.99L0,299.99L0,299.99L0,299.99L0,299.99L0,299.99L0,299.99L0,299.99L0,299.99L0,299.99L0,299.99L0,299.99L0,299.99L0,299.99L0,299.99L0,299.99L0,299.99V-0.007Z" fill-opacity="1" stroke-opacity="1" stroke-width="0" stroke-miterlimit="10" transform="matrix(1.7,0,0,1.7,1,1)" style="-webkit-tap-highlight-color: rgba(0, 0, 0, 0); fill-opacity: 1; stroke-opacity: 1; stroke-miterlimit: 10;"></path><path fill="#ffff00" stroke="#a1a1a1" d="M0,-0.007H300V299.99H1.547C1.547,299.99,1.438,299.898,1.3279999999999998,299.99C1.283,300.028,1.0939999999999999,299.99,1.0939999999999999,299.99H0L0,299.99L0,299.99L0,299.99L0,299.99L0,299.99L0,299.99L0,299.99L0,299.99L0,299.99L0,299.99L0,299.99L0,299.99L0,299.99L0,299.99L0,299.99L0,299.99L0,299.99L0,299.99L0,299.99L0,299.99L0,299.99L0,299.99L0,299.99L0,299.99L0,299.99L0,299.99L0,299.99L0,299.99V-0.007Z" fill-opacity="1" stroke-opacity="1" stroke-width="0" stroke-miterlimit="10" transform="matrix(1.53,0,0,0.81,26.5,0.5)" style="-webkit-tap-highlight-color: rgba(0, 0, 0, 0); fill-opacity: 1; stroke-opacity: 1; stroke-miterlimit: 10;"></path><path fill="#ffff00" stroke="#a1a1a1" d="M0,-0.007H300V299.99H1.547C1.547,299.99,1.438,299.898,1.3279999999999998,299.99C1.283,300.028,1.0939999999999999,299.99,1.0939999999999999,299.99H0L0,299.99L0,299.99L0,299.99L0,299.99L0,299.99L0,299.99L0,299.99L0,299.99L0,299.99L0,299.99L0,299.99L0,299.99L0,299.99L0,299.99L0,299.99L0,299.99L0,299.99L0,299.99L0,299.99L0,299.99L0,299.99L0,299.99L0,299.99L0,299.99L0,299.99L0,299.99L0,299.99L0,299.99V-0.007Z" fill-opacity="1" stroke-opacity="1" stroke-width="0" stroke-miterlimit="10" transform="matrix(1.53,0,0,0.81,26.5,268.5)" style="-webkit-tap-highlight-color: rgba(0, 0, 0, 0); fill-opacity: 1; stroke-opacity: 1; stroke-miterlimit: 10;"></path><path fill="#ff0000" stroke="#a1a1a1" d="M0,-0.007H300V299.99H1.547C1.547,299.99,1.438,299.898,1.3279999999999998,299.99C1.283,300.028,1.0939999999999999,299.99,1.0939999999999999,299.99H0L0,299.99L0,299.99L0,299.99L0,299.99L0,299.99L0,299.99L0,299.99L0,299.99L0,299.99L0,299.99L0,299.99L0,299.99L0,299.99L0,299.99L0,299.99L0,299.99L0,299.99L0,299.99L0,299.99L0,299.99L0,299.99L0,299.99L0,299.99L0,299.99L0,299.99L0,299.99L0,299.99L0,299.99V-0.007Z" fill-opacity="1" stroke-opacity="1" stroke-width="0" stroke-miterlimit="10" transform="matrix(0.59,0,0,0.72,53.5,0)" style="-webkit-tap-highlight-color: rgba(0, 0, 0, 0); fill-opacity: 1; stroke-opacity: 1; stroke-miterlimit: 10;"></path><path fill="#ff0000" stroke="#a1a1a1" d="M0,-0.007H300V299.99H1.547C1.547,299.99,1.438,299.898,1.3279999999999998,299.99C1.283,300.028,1.0939999999999999,299.99,1.0939999999999999,299.99H0L0,299.99L0,299.99L0,299.99L0,299.99L0,299.99L0,299.99L0,299.99L0,299.99L0,299.99L0,299.99L0,299.99L0,299.99L0,299.99L0,299.99L0,299.99L0,299.99L0,299.99L0,299.99L0,299.99L0,299.99L0,299.99L0,299.99L0,299.99L0,299.99L0,299.99L0,299.99L0,299.99L0,299.99V-0.007Z" fill-opacity="1" stroke-opacity="1" stroke-width="0" stroke-miterlimit="10" transform="matrix(0.59,0,0,0.72,281.5,0)" style="-webkit-tap-highlight-color: rgba(0, 0, 0, 0); fill-opacity: 1; stroke-opacity: 1; stroke-miterlimit: 10;"></path><path fill="#ffff00" stroke="#a1a1a1" d="M0,-0.007H300V299.99H1.547C1.547,299.99,1.438,299.898,1.3279999999999998,299.99C1.283,300.028,1.0939999999999999,299.99,1.0939999999999999,299.99H0L0,299.99L0,299.99L0,299.99L0,299.99L0,299.99L0,299.99L0,299.99L0,299.99L0,299.99L0,299.99L0,299.99L0,299.99L0,299.99L0,299.99L0,299.99L0,299.99L0,299.99L0,299.99L0,299.99L0,299.99L0,299.99L0,299.99L0,299.99L0,299.99L0,299.99L0,299.99L0,299.99L0,299.99V-0.007Z" fill-opacity="1" stroke-opacity="1" stroke-width="0" stroke-miterlimit="10" transform="matrix(0.09,0,0,0.17,128.5,84.5)" style="-webkit-tap-highlight-color: rgba(0, 0, 0, 0); fill-opacity: 1; stroke-opacity: 1; stroke-miterlimit: 10;"></path><rect x="344.5" y="70.50415" width="55" height="79.0017" r="0" rx="0" ry="0" fill="#0000ff" stroke="#ff0000" fill-opacity="0" stroke-dasharray="1,1" stroke-width="0" stroke-opacity="0" transform="matrix(1,0,0,1,0,0)" style="-webkit-tap-highlight-color: rgba(0, 0, 0, 0); fill-opacity: 0; stroke-opacity: 0;"></rect><path fill="#ffff00" stroke="#a1a1a1" d="M0,-0.007H300V299.99H1.547C1.547,299.99,1.438,299.898,1.3279999999999998,299.99C1.283,300.028,1.0939999999999999,299.99,1.0939999999999999,299.99H0L0,299.99L0,299.99L0,299.99L0,299.99L0,299.99L0,299.99L0,299.99L0,299.99L0,299.99L0,299.99L0,299.99L0,299.99L0,299.99L0,299.99L0,299.99L0,299.99L0,299.99L0,299.99L0,299.99L0,299.99L0,299.99L0,299.99L0,299.99L0,299.99L0,299.99L0,299.99L0,299.99L0,299.99V-0.007Z" fill-opacity="1" stroke-opacity="1" stroke-width="0" stroke-miterlimit="10" transform="matrix(0.09,0,0,0.17,358.5,84.5)" style="-webkit-tap-highlight-color: rgba(0, 0, 0, 0); fill-opacity: 1; stroke-opacity: 1; stroke-miterlimit: 10;"></path><rect x="358.5" y="84.50415" width="27" height="51.0017" r="0" rx="0" ry="0" fill="#00ff00" stroke="#000" opacity="0" stroke-width="1" transform="matrix(1,0,0,1,0,0)" style="-webkit-tap-highlight-color: rgba(0, 0, 0, 0); opacity: 0;"></rect><path fill="#000000" stroke="#000000" d="M0,504L512,504" opacity="0.2" stroke-dasharray="1,1" style="-webkit-tap-highlight-color: rgba(0, 0, 0, 0); opacity: 0.2;"></path><path fill="#000000" stroke="#000000" d="M0,496L512,496" opacity="0.2" stroke-dasharray="1,1" style="-webkit-tap-highlight-color: rgba(0, 0, 0, 0); opacity: 0.2;"></path><path fill="#000000" stroke="#000000" d="M0,488L512,488" opacity="0.2" stroke-dasharray="1,1" style="-webkit-tap-highlight-color: rgba(0, 0, 0, 0); opacity: 0.2;"></path><path fill="#000000" stroke="#000000" d="M0,480L512,480" opacity="0.2" stroke-dasharray="1,1" style="-webkit-tap-highlight-color: rgba(0, 0, 0, 0); opacity: 0.2;"></path><path fill="#000000" stroke="#000000" d="M0,472L512,472" opacity="0.2" stroke-dasharray="1,1" style="-webkit-tap-highlight-color: rgba(0, 0, 0, 0); opacity: 0.2;"></path><path fill="#000000" stroke="#000000" d="M0,464L512,464" opacity="0.2" stroke-dasharray="1,1" style="-webkit-tap-highlight-color: rgba(0, 0, 0, 0); opacity: 0.2;"></path><path fill="#000000" stroke="#000000" d="M0,456L512,456" opacity="0.2" stroke-dasharray="1,1" style="-webkit-tap-highlight-color: rgba(0, 0, 0, 0); opacity: 0.2;"></path><path fill="#000000" stroke="#000000" d="M0,448L512,448" opacity="0.2" stroke-dasharray="1,1" style="-webkit-tap-highlight-color: rgba(0, 0, 0, 0); opacity: 0.2;"></path><path fill="#000000" stroke="#000000" d="M0,440L512,440" opacity="0.2" stroke-dasharray="1,1" style="-webkit-tap-highlight-color: rgba(0, 0, 0, 0); opacity: 0.2;"></path><path fill="#000000" stroke="#000000" d="M0,432L512,432" opacity="0.2" stroke-dasharray="1,1" style="-webkit-tap-highlight-color: rgba(0, 0, 0, 0); opacity: 0.2;"></path><path fill="#000000" stroke="#000000" d="M0,424L512,424" opacity="0.2" stroke-dasharray="1,1" style="-webkit-tap-highlight-color: rgba(0, 0, 0, 0); opacity: 0.2;"></path><path fill="#000000" stroke="#000000" d="M0,416L512,416" opacity="0.2" stroke-dasharray="1,1" style="-webkit-tap-highlight-color: rgba(0, 0, 0, 0); opacity: 0.2;"></path><path fill="#000000" stroke="#000000" d="M0,408L512,408" opacity="0.2" stroke-dasharray="1,1" style="-webkit-tap-highlight-color: rgba(0, 0, 0, 0); opacity: 0.2;"></path><path fill="#000000" stroke="#000000" d="M0,400L512,400" opacity="0.2" stroke-dasharray="1,1" style="-webkit-tap-highlight-color: rgba(0, 0, 0, 0); opacity: 0.2;"></path><path fill="#000000" stroke="#000000" d="M0,392L512,392" opacity="0.2" stroke-dasharray="1,1" style="-webkit-tap-highlight-color: rgba(0, 0, 0, 0); opacity: 0.2;"></path><path fill="#000000" stroke="#000000" d="M0,384L512,384" opacity="0.2" stroke-dasharray="1,1" style="-webkit-tap-highlight-color: rgba(0, 0, 0, 0); opacity: 0.2;"></path><path fill="#000000" stroke="#000000" d="M0,376L512,376" opacity="0.2" stroke-dasharray="1,1" style="-webkit-tap-highlight-color: rgba(0, 0, 0, 0); opacity: 0.2;"></path><path fill="#000000" stroke="#000000" d="M0,368L512,368" opacity="0.2" stroke-dasharray="1,1" style="-webkit-tap-highlight-color: rgba(0, 0, 0, 0); opacity: 0.2;"></path><path fill="#000000" stroke="#000000" d="M0,360L512,360" opacity="0.2" stroke-dasharray="1,1" style="-webkit-tap-highlight-color: rgba(0, 0, 0, 0); opacity: 0.2;"></path><path fill="#000000" stroke="#000000" d="M0,352L512,352" opacity="0.2" stroke-dasharray="1,1" style="-webkit-tap-highlight-color: rgba(0, 0, 0, 0); opacity: 0.2;"></path><path fill="#000000" stroke="#000000" d="M0,344L512,344" opacity="0.2" stroke-dasharray="1,1" style="-webkit-tap-highlight-color: rgba(0, 0, 0, 0); opacity: 0.2;"></path><path fill="#000000" stroke="#000000" d="M0,336L512,336" opacity="0.2" stroke-dasharray="1,1" style="-webkit-tap-highlight-color: rgba(0, 0, 0, 0); opacity: 0.2;"></path><path fill="#000000" stroke="#000000" d="M0,328L512,328" opacity="0.2" stroke-dasharray="1,1" style="-webkit-tap-highlight-color: rgba(0, 0, 0, 0); opacity: 0.2;"></path><path fill="#000000" stroke="#000000" d="M0,320L512,320" opacity="0.2" stroke-dasharray="1,1" style="-webkit-tap-highlight-color: rgba(0, 0, 0, 0); opacity: 0.2;"></path><path fill="#000000" stroke="#000000" d="M0,312L512,312" opacity="0.2" stroke-dasharray="1,1" style="-webkit-tap-highlight-color: rgba(0, 0, 0, 0); opacity: 0.2;"></path><path fill="#000000" stroke="#000000" d="M0,304L512,304" opacity="0.2" stroke-dasharray="1,1" style="-webkit-tap-highlight-color: rgba(0, 0, 0, 0); opacity: 0.2;"></path><path fill="#000000" stroke="#000000" d="M0,296L512,296" opacity="0.2" stroke-dasharray="1,1" style="-webkit-tap-highlight-color: rgba(0, 0, 0, 0); opacity: 0.2;"></path><path fill="#000000" stroke="#000000" d="M0,288L512,288" opacity="0.2" stroke-dasharray="1,1" style="-webkit-tap-highlight-color: rgba(0, 0, 0, 0); opacity: 0.2;"></path><path fill="#000000" stroke="#000000" d="M0,280L512,280" opacity="0.2" stroke-dasharray="1,1" style="-webkit-tap-highlight-color: rgba(0, 0, 0, 0); opacity: 0.2;"></path><path fill="#000000" stroke="#000000" d="M0,272L512,272" opacity="0.2" stroke-dasharray="1,1" style="-webkit-tap-highlight-color: rgba(0, 0, 0, 0); opacity: 0.2;"></path><path fill="#000000" stroke="#000000" d="M0,264L512,264" opacity="0.2" stroke-dasharray="1,1" style="-webkit-tap-highlight-color: rgba(0, 0, 0, 0); opacity: 0.2;"></path><path fill="#000000" stroke="#000000" d="M0,256L512,256" opacity="0.7" stroke-dasharray="1,1" style="-webkit-tap-highlight-color: rgba(0, 0, 0, 0); opacity: 0.7;"></path><path fill="#000000" stroke="#000000" d="M0,248L512,248" opacity="0.2" stroke-dasharray="1,1" style="-webkit-tap-highlight-color: rgba(0, 0, 0, 0); opacity: 0.2;"></path><path fill="#000000" stroke="#000000" d="M0,240L512,240" opacity="0.2" stroke-dasharray="1,1" style="-webkit-tap-highlight-color: rgba(0, 0, 0, 0); opacity: 0.2;"></path><path fill="#000000" stroke="#000000" d="M0,232L512,232" opacity="0.2" stroke-dasharray="1,1" style="-webkit-tap-highlight-color: rgba(0, 0, 0, 0); opacity: 0.2;"></path><path fill="#000000" stroke="#000000" d="M0,224L512,224" opacity="0.2" stroke-dasharray="1,1" style="-webkit-tap-highlight-color: rgba(0, 0, 0, 0); opacity: 0.2;"></path><path fill="#000000" stroke="#000000" d="M0,216L512,216" opacity="0.2" stroke-dasharray="1,1" style="-webkit-tap-highlight-color: rgba(0, 0, 0, 0); opacity: 0.2;"></path><path fill="#000000" stroke="#000000" d="M0,208L512,208" opacity="0.2" stroke-dasharray="1,1" style="-webkit-tap-highlight-color: rgba(0, 0, 0, 0); opacity: 0.2;"></path><path fill="#000000" stroke="#000000" d="M0,200L512,200" opacity="0.2" stroke-dasharray="1,1" style="-webkit-tap-highlight-color: rgba(0, 0, 0, 0); opacity: 0.2;"></path><path fill="#000000" stroke="#000000" d="M0,192L512,192" opacity="0.2" stroke-dasharray="1,1" style="-webkit-tap-highlight-color: rgba(0, 0, 0, 0); opacity: 0.2;"></path><path fill="#000000" stroke="#000000" d="M0,184L512,184" opacity="0.2" stroke-dasharray="1,1" style="-webkit-tap-highlight-color: rgba(0, 0, 0, 0); opacity: 0.2;"></path><path fill="#000000" stroke="#000000" d="M0,176L512,176" opacity="0.2" stroke-dasharray="1,1" style="-webkit-tap-highlight-color: rgba(0, 0, 0, 0); opacity: 0.2;"></path><path fill="#000000" stroke="#000000" d="M0,168L512,168" opacity="0.2" stroke-dasharray="1,1" style="-webkit-tap-highlight-color: rgba(0, 0, 0, 0); opacity: 0.2;"></path><path fill="#000000" stroke="#000000" d="M0,160L512,160" opacity="0.2" stroke-dasharray="1,1" style="-webkit-tap-highlight-color: rgba(0, 0, 0, 0); opacity: 0.2;"></path><path fill="#000000" stroke="#000000" d="M0,152L512,152" opacity="0.2" stroke-dasharray="1,1" style="-webkit-tap-highlight-color: rgba(0, 0, 0, 0); opacity: 0.2;"></path><path fill="#000000" stroke="#000000" d="M0,144L512,144" opacity="0.2" stroke-dasharray="1,1" style="-webkit-tap-highlight-color: rgba(0, 0, 0, 0); opacity: 0.2;"></path><path fill="#000000" stroke="#000000" d="M0,136L512,136" opacity="0.2" stroke-dasharray="1,1" style="-webkit-tap-highlight-color: rgba(0, 0, 0, 0); opacity: 0.2;"></path><path fill="#000000" stroke="#000000" d="M0,128L512,128" opacity="0.2" stroke-dasharray="1,1" style="-webkit-tap-highlight-color: rgba(0, 0, 0, 0); opacity: 0.2;"></path><path fill="#000000" stroke="#000000" d="M0,120L512,120" opacity="0.2" stroke-dasharray="1,1" style="-webkit-tap-highlight-color: rgba(0, 0, 0, 0); opacity: 0.2;"></path><path fill="#000000" stroke="#000000" d="M0,112L512,112" opacity="0.2" stroke-dasharray="1,1" style="-webkit-tap-highlight-color: rgba(0, 0, 0, 0); opacity: 0.2;"></path><path fill="#000000" stroke="#000000" d="M0,104L512,104" opacity="0.2" stroke-dasharray="1,1" style="-webkit-tap-highlight-color: rgba(0, 0, 0, 0); opacity: 0.2;"></path><path fill="#000000" stroke="#000000" d="M0,96L512,96" opacity="0.2" stroke-dasharray="1,1" style="-webkit-tap-highlight-color: rgba(0, 0, 0, 0); opacity: 0.2;"></path><path fill="#000000" stroke="#000000" d="M0,88L512,88" opacity="0.2" stroke-dasharray="1,1" style="-webkit-tap-highlight-color: rgba(0, 0, 0, 0); opacity: 0.2;"></path><path fill="#000000" stroke="#000000" d="M0,80L512,80" opacity="0.2" stroke-dasharray="1,1" style="-webkit-tap-highlight-color: rgba(0, 0, 0, 0); opacity: 0.2;"></path><path fill="#000000" stroke="#000000" d="M0,72L512,72" opacity="0.2" stroke-dasharray="1,1" style="-webkit-tap-highlight-color: rgba(0, 0, 0, 0); opacity: 0.2;"></path><path fill="#000000" stroke="#000000" d="M0,64L512,64" opacity="0.2" stroke-dasharray="1,1" style="-webkit-tap-highlight-color: rgba(0, 0, 0, 0); opacity: 0.2;"></path><path fill="#000000" stroke="#000000" d="M0,56L512,56" opacity="0.2" stroke-dasharray="1,1" style="-webkit-tap-highlight-color: rgba(0, 0, 0, 0); opacity: 0.2;"></path><path fill="#000000" stroke="#000000" d="M0,48L512,48" opacity="0.2" stroke-dasharray="1,1" style="-webkit-tap-highlight-color: rgba(0, 0, 0, 0); opacity: 0.2;"></path><path fill="#000000" stroke="#000000" d="M0,40L512,40" opacity="0.2" stroke-dasharray="1,1" style="-webkit-tap-highlight-color: rgba(0, 0, 0, 0); opacity: 0.2;"></path><path fill="#000000" stroke="#000000" d="M0,32L512,32" opacity="0.2" stroke-dasharray="1,1" style="-webkit-tap-highlight-color: rgba(0, 0, 0, 0); opacity: 0.2;"></path><path fill="#000000" stroke="#000000" d="M0,24L512,24" opacity="0.2" stroke-dasharray="1,1" style="-webkit-tap-highlight-color: rgba(0, 0, 0, 0); opacity: 0.2;"></path><path fill="#000000" stroke="#000000" d="M0,16L512,16" opacity="0.2" stroke-dasharray="1,1" style="-webkit-tap-highlight-color: rgba(0, 0, 0, 0); opacity: 0.2;"></path><path fill="#000000" stroke="#000000" d="M0,8L512,8" opacity="0.2" stroke-dasharray="1,1" style="-webkit-tap-highlight-color: rgba(0, 0, 0, 0); opacity: 0.2;"></path><path fill="#000000" stroke="#000000" d="M504,0L504,512" opacity="0.2" stroke-dasharray="1,1" style="-webkit-tap-highlight-color: rgba(0, 0, 0, 0); opacity: 0.2;"></path><path fill="#000000" stroke="#000000" d="M496,0L496,512" opacity="0.2" stroke-dasharray="1,1" style="-webkit-tap-highlight-color: rgba(0, 0, 0, 0); opacity: 0.2;"></path><path fill="#000000" stroke="#000000" d="M488,0L488,512" opacity="0.2" stroke-dasharray="1,1" style="-webkit-tap-highlight-color: rgba(0, 0, 0, 0); opacity: 0.2;"></path><path fill="#000000" stroke="#000000" d="M480,0L480,512" opacity="0.2" stroke-dasharray="1,1" style="-webkit-tap-highlight-color: rgba(0, 0, 0, 0); opacity: 0.2;"></path><path fill="#000000" stroke="#000000" d="M472,0L472,512" opacity="0.2" stroke-dasharray="1,1" style="-webkit-tap-highlight-color: rgba(0, 0, 0, 0); opacity: 0.2;"></path><path fill="#000000" stroke="#000000" d="M464,0L464,512" opacity="0.2" stroke-dasharray="1,1" style="-webkit-tap-highlight-color: rgba(0, 0, 0, 0); opacity: 0.2;"></path><path fill="#000000" stroke="#000000" d="M456,0L456,512" opacity="0.2" stroke-dasharray="1,1" style="-webkit-tap-highlight-color: rgba(0, 0, 0, 0); opacity: 0.2;"></path><path fill="#000000" stroke="#000000" d="M448,0L448,512" opacity="0.2" stroke-dasharray="1,1" style="-webkit-tap-highlight-color: rgba(0, 0, 0, 0); opacity: 0.2;"></path><path fill="#000000" stroke="#000000" d="M440,0L440,512" opacity="0.2" stroke-dasharray="1,1" style="-webkit-tap-highlight-color: rgba(0, 0, 0, 0); opacity: 0.2;"></path><path fill="#000000" stroke="#000000" d="M432,0L432,512" opacity="0.2" stroke-dasharray="1,1" style="-webkit-tap-highlight-color: rgba(0, 0, 0, 0); opacity: 0.2;"></path><path fill="#000000" stroke="#000000" d="M424,0L424,512" opacity="0.2" stroke-dasharray="1,1" style="-webkit-tap-highlight-color: rgba(0, 0, 0, 0); opacity: 0.2;"></path><path fill="#000000" stroke="#000000" d="M416,0L416,512" opacity="0.2" stroke-dasharray="1,1" style="-webkit-tap-highlight-color: rgba(0, 0, 0, 0); opacity: 0.2;"></path><path fill="#000000" stroke="#000000" d="M408,0L408,512" opacity="0.2" stroke-dasharray="1,1" style="-webkit-tap-highlight-color: rgba(0, 0, 0, 0); opacity: 0.2;"></path><path fill="#000000" stroke="#000000" d="M400,0L400,512" opacity="0.2" stroke-dasharray="1,1" style="-webkit-tap-highlight-color: rgba(0, 0, 0, 0); opacity: 0.2;"></path><path fill="#000000" stroke="#000000" d="M392,0L392,512" opacity="0.2" stroke-dasharray="1,1" style="-webkit-tap-highlight-color: rgba(0, 0, 0, 0); opacity: 0.2;"></path><path fill="#000000" stroke="#000000" d="M384,0L384,512" opacity="0.2" stroke-dasharray="1,1" style="-webkit-tap-highlight-color: rgba(0, 0, 0, 0); opacity: 0.2;"></path><path fill="#000000" stroke="#000000" d="M376,0L376,512" opacity="0.2" stroke-dasharray="1,1" style="-webkit-tap-highlight-color: rgba(0, 0, 0, 0); opacity: 0.2;"></path><path fill="#000000" stroke="#000000" d="M368,0L368,512" opacity="0.2" stroke-dasharray="1,1" style="-webkit-tap-highlight-color: rgba(0, 0, 0, 0); opacity: 0.2;"></path><path fill="#000000" stroke="#000000" d="M360,0L360,512" opacity="0.2" stroke-dasharray="1,1" style="-webkit-tap-highlight-color: rgba(0, 0, 0, 0); opacity: 0.2;"></path><path fill="#000000" stroke="#000000" d="M352,0L352,512" opacity="0.2" stroke-dasharray="1,1" style="-webkit-tap-highlight-color: rgba(0, 0, 0, 0); opacity: 0.2;"></path><path fill="#000000" stroke="#000000" d="M344,0L344,512" opacity="0.2" stroke-dasharray="1,1" style="-webkit-tap-highlight-color: rgba(0, 0, 0, 0); opacity: 0.2;"></path><path fill="#000000" stroke="#000000" d="M336,0L336,512" opacity="0.2" stroke-dasharray="1,1" style="-webkit-tap-highlight-color: rgba(0, 0, 0, 0); opacity: 0.2;"></path><path fill="#000000" stroke="#000000" d="M328,0L328,512" opacity="0.2" stroke-dasharray="1,1" style="-webkit-tap-highlight-color: rgba(0, 0, 0, 0); opacity: 0.2;"></path><path fill="#000000" stroke="#000000" d="M320,0L320,512" opacity="0.2" stroke-dasharray="1,1" style="-webkit-tap-highlight-color: rgba(0, 0, 0, 0); opacity: 0.2;"></path><path fill="#000000" stroke="#000000" d="M312,0L312,512" opacity="0.2" stroke-dasharray="1,1" style="-webkit-tap-highlight-color: rgba(0, 0, 0, 0); opacity: 0.2;"></path><path fill="#000000" stroke="#000000" d="M304,0L304,512" opacity="0.2" stroke-dasharray="1,1" style="-webkit-tap-highlight-color: rgba(0, 0, 0, 0); opacity: 0.2;"></path><path fill="#000000" stroke="#000000" d="M296,0L296,512" opacity="0.2" stroke-dasharray="1,1" style="-webkit-tap-highlight-color: rgba(0, 0, 0, 0); opacity: 0.2;"></path><path fill="#000000" stroke="#000000" d="M288,0L288,512" opacity="0.2" stroke-dasharray="1,1" style="-webkit-tap-highlight-color: rgba(0, 0, 0, 0); opacity: 0.2;"></path><path fill="#000000" stroke="#000000" d="M280,0L280,512" opacity="0.2" stroke-dasharray="1,1" style="-webkit-tap-highlight-color: rgba(0, 0, 0, 0); opacity: 0.2;"></path><path fill="#000000" stroke="#000000" d="M272,0L272,512" opacity="0.2" stroke-dasharray="1,1" style="-webkit-tap-highlight-color: rgba(0, 0, 0, 0); opacity: 0.2;"></path><path fill="#000000" stroke="#000000" d="M264,0L264,512" opacity="0.2" stroke-dasharray="1,1" style="-webkit-tap-highlight-color: rgba(0, 0, 0, 0); opacity: 0.2;"></path><path fill="#000000" stroke="#000000" d="M256,0L256,512" opacity="0.7" stroke-dasharray="1,1" style="-webkit-tap-highlight-color: rgba(0, 0, 0, 0); opacity: 0.7;"></path><path fill="#000000" stroke="#000000" d="M248,0L248,512" opacity="0.2" stroke-dasharray="1,1" style="-webkit-tap-highlight-color: rgba(0, 0, 0, 0); opacity: 0.2;"></path><path fill="#000000" stroke="#000000" d="M240,0L240,512" opacity="0.2" stroke-dasharray="1,1" style="-webkit-tap-highlight-color: rgba(0, 0, 0, 0); opacity: 0.2;"></path><path fill="#000000" stroke="#000000" d="M232,0L232,512" opacity="0.2" stroke-dasharray="1,1" style="-webkit-tap-highlight-color: rgba(0, 0, 0, 0); opacity: 0.2;"></path><path fill="#000000" stroke="#000000" d="M224,0L224,512" opacity="0.2" stroke-dasharray="1,1" style="-webkit-tap-highlight-color: rgba(0, 0, 0, 0); opacity: 0.2;"></path><path fill="#000000" stroke="#000000" d="M216,0L216,512" opacity="0.2" stroke-dasharray="1,1" style="-webkit-tap-highlight-color: rgba(0, 0, 0, 0); opacity: 0.2;"></path><path fill="#000000" stroke="#000000" d="M208,0L208,512" opacity="0.2" stroke-dasharray="1,1" style="-webkit-tap-highlight-color: rgba(0, 0, 0, 0); opacity: 0.2;"></path><path fill="#000000" stroke="#000000" d="M200,0L200,512" opacity="0.2" stroke-dasharray="1,1" style="-webkit-tap-highlight-color: rgba(0, 0, 0, 0); opacity: 0.2;"></path><path fill="#000000" stroke="#000000" d="M192,0L192,512" opacity="0.2" stroke-dasharray="1,1" style="-webkit-tap-highlight-color: rgba(0, 0, 0, 0); opacity: 0.2;"></path><path fill="#000000" stroke="#000000" d="M184,0L184,512" opacity="0.2" stroke-dasharray="1,1" style="-webkit-tap-highlight-color: rgba(0, 0, 0, 0); opacity: 0.2;"></path><path fill="#000000" stroke="#000000" d="M176,0L176,512" opacity="0.2" stroke-dasharray="1,1" style="-webkit-tap-highlight-color: rgba(0, 0, 0, 0); opacity: 0.2;"></path><path fill="#000000" stroke="#000000" d="M168,0L168,512" opacity="0.2" stroke-dasharray="1,1" style="-webkit-tap-highlight-color: rgba(0, 0, 0, 0); opacity: 0.2;"></path><path fill="#000000" stroke="#000000" d="M160,0L160,512" opacity="0.2" stroke-dasharray="1,1" style="-webkit-tap-highlight-color: rgba(0, 0, 0, 0); opacity: 0.2;"></path><path fill="#000000" stroke="#000000" d="M152,0L152,512" opacity="0.2" stroke-dasharray="1,1" style="-webkit-tap-highlight-color: rgba(0, 0, 0, 0); opacity: 0.2;"></path><path fill="#000000" stroke="#000000" d="M144,0L144,512" opacity="0.2" stroke-dasharray="1,1" style="-webkit-tap-highlight-color: rgba(0, 0, 0, 0); opacity: 0.2;"></path><path fill="#000000" stroke="#000000" d="M136,0L136,512" opacity="0.2" stroke-dasharray="1,1" style="-webkit-tap-highlight-color: rgba(0, 0, 0, 0); opacity: 0.2;"></path><path fill="#000000" stroke="#000000" d="M128,0L128,512" opacity="0.2" stroke-dasharray="1,1" style="-webkit-tap-highlight-color: rgba(0, 0, 0, 0); opacity: 0.2;"></path><path fill="#000000" stroke="#000000" d="M120,0L120,512" opacity="0.2" stroke-dasharray="1,1" style="-webkit-tap-highlight-color: rgba(0, 0, 0, 0); opacity: 0.2;"></path><path fill="#000000" stroke="#000000" d="M112,0L112,512" opacity="0.2" stroke-dasharray="1,1" style="-webkit-tap-highlight-color: rgba(0, 0, 0, 0); opacity: 0.2;"></path><path fill="#000000" stroke="#000000" d="M104,0L104,512" opacity="0.2" stroke-dasharray="1,1" style="-webkit-tap-highlight-color: rgba(0, 0, 0, 0); opacity: 0.2;"></path><path fill="#000000" stroke="#000000" d="M96,0L96,512" opacity="0.2" stroke-dasharray="1,1" style="-webkit-tap-highlight-color: rgba(0, 0, 0, 0); opacity: 0.2;"></path><path fill="#000000" stroke="#000000" d="M88,0L88,512" opacity="0.2" stroke-dasharray="1,1" style="-webkit-tap-highlight-color: rgba(0, 0, 0, 0); opacity: 0.2;"></path><path fill="#000000" stroke="#000000" d="M80,0L80,512" opacity="0.2" stroke-dasharray="1,1" style="-webkit-tap-highlight-color: rgba(0, 0, 0, 0); opacity: 0.2;"></path><path fill="#000000" stroke="#000000" d="M72,0L72,512" opacity="0.2" stroke-dasharray="1,1" style="-webkit-tap-highlight-color: rgba(0, 0, 0, 0); opacity: 0.2;"></path><path fill="#000000" stroke="#000000" d="M64,0L64,512" opacity="0.2" stroke-dasharray="1,1" style="-webkit-tap-highlight-color: rgba(0, 0, 0, 0); opacity: 0.2;"></path><path fill="#000000" stroke="#000000" d="M56,0L56,512" opacity="0.2" stroke-dasharray="1,1" style="-webkit-tap-highlight-color: rgba(0, 0, 0, 0); opacity: 0.2;"></path><path fill="#000000" stroke="#000000" d="M48,0L48,512" opacity="0.2" stroke-dasharray="1,1" style="-webkit-tap-highlight-color: rgba(0, 0, 0, 0); opacity: 0.2;"></path><path fill="#000000" stroke="#000000" d="M40,0L40,512" opacity="0.2" stroke-dasharray="1,1" style="-webkit-tap-highlight-color: rgba(0, 0, 0, 0); opacity: 0.2;"></path><path fill="#000000" stroke="#000000" d="M32,0L32,512" opacity="0.2" stroke-dasharray="1,1" style="-webkit-tap-highlight-color: rgba(0, 0, 0, 0); opacity: 0.2;"></path><path fill="#000000" stroke="#000000" d="M24,0L24,512" opacity="0.2" stroke-dasharray="1,1" style="-webkit-tap-highlight-color: rgba(0, 0, 0, 0); opacity: 0.2;"></path><path fill="#000000" stroke="#000000" d="M16,0L16,512" opacity="0.2" stroke-dasharray="1,1" style="-webkit-tap-highlight-color: rgba(0, 0, 0, 0); opacity: 0.2;"></path><path fill="#000000" stroke="#000000" d="M8,0L8,512" opacity="0.2" stroke-dasharray="1,1" style="-webkit-tap-highlight-color: rgba(0, 0, 0, 0); opacity: 0.2;"></path><desc style="-webkit-tap-highlight-color: rgba(0, 0, 0, 0);">Created with Raphaël 2.1.0</desc><defs style="-webkit-tap-highlight-color: rgba(0, 0, 0, 0);"></defs><rect x="358.5" y="84.50415" width="27" height="51.0017" r="0" rx="0" ry="0" fill="#666666" stroke="#33cccc" opacity="1" fill-opacity="0" stroke-dasharray="3,1" stroke-width="1" stroke-opacity="1" transform="matrix(1,0,0,1,0,0)" style="-webkit-tap-highlight-color: rgba(0, 0, 0, 0); opacity: 1; fill-opacity: 0; stroke-opacity: 1;"></rect><rect x="-14" y="-14" width="21" height="21" r="0" rx="0" ry="0" fill="#ff00ff" stroke="#000000" stroke-width="1" stroke-opacity="1" opacity="0" transform="matrix(1,0,0,1,358.5,84.5041)" style="-webkit-tap-highlight-color: rgba(0, 0, 0, 0); stroke-opacity: 1; opacity: 0;"></rect><rect x="293" y="-14" width="21" height="21" r="0" rx="0" ry="0" fill="#ff00ff" stroke="#000000" stroke-width="1" stroke-opacity="1" opacity="0" transform="matrix(1,0,0,1,85.5,84.5041)" style="-webkit-tap-highlight-color: rgba(0, 0, 0, 0); stroke-opacity: 1; opacity: 0; cursor: default;"></rect><rect x="293" y="293.01" width="21" height="21" r="0" rx="0" ry="0" fill="#ff00ff" stroke="#000000" stroke-width="1" stroke-opacity="1" opacity="0" transform="matrix(1,0,0,1,85.5,-164.5041)" style="-webkit-tap-highlight-color: rgba(0, 0, 0, 0); stroke-opacity: 1; opacity: 0;"></rect><rect x="-14" y="293.01" width="21" height="21" r="0" rx="0" ry="0" fill="#ff00ff" stroke="#000000" stroke-width="1" stroke-opacity="1" opacity="0" transform="matrix(1,0,0,1,358.5,-164.5041)" style="-webkit-tap-highlight-color: rgba(0, 0, 0, 0); stroke-opacity: 1; opacity: 0; cursor: default;"></rect><rect x="-7" y="-7" width="14" height="14" r="0" rx="0" ry="0" fill="#33cccc" stroke="#000000" stroke-width="0.5" stroke-opacity="1" opacity="1" transform="matrix(1,0,0,1,358.5,84.5041)" style="-webkit-tap-highlight-color: rgba(0, 0, 0, 0); stroke-opacity: 1; opacity: 1;"></rect><rect x="143" y="-7" width="14" height="14" r="0" rx="0" ry="0" fill="#33cccc" stroke="#000000" stroke-width="0.5" stroke-opacity="1" opacity="1" transform="matrix(1,0,0,1,222,84.5041)" style="-webkit-tap-highlight-color: rgba(0, 0, 0, 0); stroke-opacity: 1; opacity: 1;"></rect><rect x="293" y="-7" width="14" height="14" r="0" rx="0" ry="0" fill="#33cccc" stroke="#000000" stroke-width="0.5" stroke-opacity="1" opacity="1" transform="matrix(1,0,0,1,85.5,84.5041)" style="-webkit-tap-highlight-color: rgba(0, 0, 0, 0); stroke-opacity: 1; opacity: 1;"></rect><rect x="293" y="143.005" width="14" height="14" r="0" rx="0" ry="0" fill="#33cccc" stroke="#000000" stroke-width="0.5" stroke-opacity="1" opacity="1" transform="matrix(1,0,0,1,85.5,-40)" style="-webkit-tap-highlight-color: rgba(0, 0, 0, 0); stroke-opacity: 1; opacity: 1; cursor: default;"></rect><rect x="293" y="293.01" width="14" height="14" r="0" rx="0" ry="0" fill="#33cccc" stroke="#000000" stroke-width="0.5" stroke-opacity="1" opacity="1" transform="matrix(1,0,0,1,85.5,-164.5041)" style="-webkit-tap-highlight-color: rgba(0, 0, 0, 0); stroke-opacity: 1; opacity: 1;"></rect><rect x="143" y="293.01" width="14" height="14" r="0" rx="0" ry="0" fill="#33cccc" stroke="#000000" stroke-width="0.5" stroke-opacity="1" opacity="1" transform="matrix(1,0,0,1,222,-164.5041)" style="-webkit-tap-highlight-color: rgba(0, 0, 0, 0); stroke-opacity: 1; opacity: 1;"></rect><rect x="-7" y="293.01" width="14" height="14" r="0" rx="0" ry="0" fill="#33cccc" stroke="#000000" stroke-width="0.5" stroke-opacity="1" opacity="1" transform="matrix(1,0,0,1,358.5,-164.5041)" style="-webkit-tap-highlight-color: rgba(0, 0, 0, 0); stroke-opacity: 1; opacity: 1; cursor: default;"></rect><rect x="-7" y="143.005" width="14" height="14" r="0" rx="0" ry="0" fill="#33cccc" stroke="#000000" stroke-width="0.5" stroke-opacity="1" opacity="1" transform="matrix(1,0,0,1,358.5,-40)" style="-webkit-tap-highlight-color: rgba(0, 0, 0, 0); stroke-opacity: 1; opacity: 1;"></rect></svg>